<svg width="98" height="38" viewBox="0 0 98 38" fill="none" xmlns="http://www.w3.org/2000/svg">
<path d="M14.25 18.5H25.85V20H14.25V31.75H12.45V20H0.8V18.5H12.45V6.7H14.25V18.5ZM56.7309 16C58.7975 17.7667 60.3475 19.1667 61.3809 20.2C62.4475 21.2 63.3809 22.4 64.1809 23.8C64.9809 25.1667 65.3809 26.65 65.3809 28.25C65.3809 30.0833 64.8475 31.7167 63.7809 33.15C62.7475 34.5833 61.2975 35.7 59.4309 36.5C57.5642 37.3 55.4642 37.7 53.1309 37.7C51.0309 37.7 49.0975 37.3833 47.3309 36.75C45.5642 36.0833 44.1475 35.1 43.0809 33.8C42.0475 32.5 41.5309 30.95 41.5309 29.15C41.5309 26.9833 42.2642 25.1 43.7309 23.5C45.1975 21.9 47.1809 20.55 49.6809 19.45C47.6142 17.6833 46.0142 16.0167 44.8809 14.45C43.7475 12.85 43.1809 11.05 43.1809 9.05C43.1809 7.31667 43.6642 5.83333 44.6309 4.6C45.5975 3.36666 46.8809 2.45 48.4809 1.85C50.0809 1.21666 51.8475 0.899997 53.7809 0.899997C56.6475 0.899997 58.9975 1.55 60.8309 2.85C62.6642 4.11666 63.5809 5.8 63.5809 7.9C63.5809 9.53333 62.9975 11 61.8309 12.3C60.6975 13.5667 58.9975 14.8 56.7309 16ZM53.3809 1.8C52.2809 1.8 51.3975 2.18333 50.7309 2.95C50.0975 3.68333 49.7809 4.68333 49.7809 5.95C49.7809 7.61666 50.2975 9.16667 51.3309 10.6C52.3975 12.0333 53.9309 13.6167 55.9309 15.35C56.5642 14.45 57.0309 13.3667 57.3309 12.1C57.6309 10.8 57.7809 9.53333 57.7809 8.3C57.7809 6.26666 57.3809 4.68333 56.5809 3.55C55.8142 2.38333 54.7475 1.8 53.3809 1.8ZM53.3809 36.8C54.9475 36.8 56.1809 36.3167 57.0809 35.35C57.9809 34.35 58.4309 33.0333 58.4309 31.4C58.4309 29.9 58.0642 28.5167 57.3309 27.25C56.5975 25.9833 55.7309 24.8667 54.7309 23.9C53.7309 22.9333 52.2975 21.6667 50.4309 20.1C48.6309 22 47.7309 24.7167 47.7309 28.25C47.7309 30.7833 48.1642 32.85 49.0309 34.45C49.9309 36.0167 51.3809 36.8 53.3809 36.8ZM83.8082 10.45C86.4415 10.45 88.7915 11 90.8582 12.1C92.9249 13.2 94.5249 14.75 95.6582 16.75C96.8249 18.75 97.4082 21.05 97.4082 23.65C97.4082 26.3167 96.8082 28.7167 95.6082 30.85C94.4415 32.9833 92.7749 34.6667 90.6082 35.9C88.4749 37.1 86.0249 37.7 83.2582 37.7C80.6582 37.7 78.3249 37.15 76.2582 36.05C74.1915 34.95 72.5749 33.4 71.4082 31.4C70.2415 29.4 69.6582 27.0833 69.6582 24.45C69.6582 21.8167 70.2415 19.4333 71.4082 17.3C72.6082 15.1667 74.2749 13.5 76.4082 12.3C78.5415 11.0667 81.0082 10.45 83.8082 10.45ZM83.3582 11.35C82.1582 11.35 81.0915 11.8667 80.1582 12.9C79.2249 13.9333 78.4915 15.4333 77.9582 17.4C77.4582 19.3333 77.2082 21.6333 77.2082 24.3C77.2082 28.5333 77.8082 31.6833 79.0082 33.75C80.2415 35.7833 81.8082 36.8 83.7082 36.8C84.9082 36.8 85.9582 36.2833 86.8582 35.25C87.7915 34.1833 88.5249 32.6833 89.0582 30.75C89.5915 28.7833 89.8582 26.4667 89.8582 23.8C89.8582 19.5667 89.2415 16.4333 88.0082 14.4C86.8082 12.3667 85.2582 11.35 83.3582 11.35Z" fill="#676CDB"/>
</svg>
