<svg width="128" height="45" viewBox="0 0 128 45" fill="none" xmlns="http://www.w3.org/2000/svg">
<path d="M12.1 37.15C12.1 38.5833 12.3667 39.5833 12.9 40.15C13.4333 40.6833 14.3667 40.95 15.7 40.95V42C12.1 41.8667 9.8 41.8 8.8 41.8C7.7 41.8 5.3 41.85 1.6 41.95L0.2 42V40.95C1.76667 40.95 2.93333 40.65 3.7 40.05C4.5 39.45 4.9 38.3833 4.9 36.85V24.65C4.9 23.05 4.75 21.8833 4.45 21.15C4.18333 20.3833 3.71667 19.8833 3.05 19.65C2.38333 19.3833 1.36667 19.25 1.41561e-07 19.25V18.15C2.9 18.0833 5.28333 17.8667 7.15 17.5C9.01667 17.1 10.6667 16.4667 12.1 15.6V37.15ZM33.5406 15.45C36.174 15.45 38.524 16 40.5906 17.1C42.6573 18.2 44.2573 19.75 45.3906 21.75C46.5573 23.75 47.1406 26.05 47.1406 28.65C47.1406 31.3167 46.5406 33.7167 45.3406 35.85C44.174 37.9833 42.5073 39.6667 40.3406 40.9C38.2073 42.1 35.7573 42.7 32.9906 42.7C30.3906 42.7 28.0573 42.15 25.9906 41.05C23.924 39.95 22.3073 38.4 21.1406 36.4C19.974 34.4 19.3906 32.0833 19.3906 29.45C19.3906 26.8167 19.974 24.4333 21.1406 22.3C22.3406 20.1667 24.0073 18.5 26.1406 17.3C28.274 16.0667 30.7406 15.45 33.5406 15.45ZM33.0906 16.35C31.8906 16.35 30.824 16.8667 29.8906 17.9C28.9573 18.9333 28.224 20.4333 27.6906 22.4C27.1906 24.3333 26.9406 26.6333 26.9406 29.3C26.9406 33.5333 27.5406 36.6833 28.7406 38.75C29.974 40.7833 31.5406 41.8 33.4406 41.8C34.6406 41.8 35.6906 41.2833 36.5906 40.25C37.524 39.1833 38.2573 37.6833 38.7906 35.75C39.324 33.7833 39.5906 31.4667 39.5906 28.8C39.5906 24.5667 38.974 21.4333 37.7406 19.4C36.5406 17.3667 34.9906 16.35 33.0906 16.35ZM65.7672 15.45C68.4005 15.45 70.7505 16 72.8172 17.1C74.8839 18.2 76.4839 19.75 77.6172 21.75C78.7839 23.75 79.3672 26.05 79.3672 28.65C79.3672 31.3167 78.7672 33.7167 77.5672 35.85C76.4005 37.9833 74.7339 39.6667 72.5672 40.9C70.4339 42.1 67.9839 42.7 65.2172 42.7C62.6172 42.7 60.2839 42.15 58.2172 41.05C56.1505 39.95 54.5339 38.4 53.3672 36.4C52.2005 34.4 51.6172 32.0833 51.6172 29.45C51.6172 26.8167 52.2005 24.4333 53.3672 22.3C54.5672 20.1667 56.2339 18.5 58.3672 17.3C60.5005 16.0667 62.9672 15.45 65.7672 15.45ZM65.3172 16.35C64.1172 16.35 63.0505 16.8667 62.1172 17.9C61.1839 18.9333 60.4505 20.4333 59.9172 22.4C59.4172 24.3333 59.1672 26.6333 59.1672 29.3C59.1672 33.5333 59.7672 36.6833 60.9672 38.75C62.2005 40.7833 63.7672 41.8 65.6672 41.8C66.8672 41.8 67.9172 41.2833 68.8172 40.25C69.7505 39.1833 70.4839 37.6833 71.0172 35.75C71.5505 33.7833 71.8172 31.4667 71.8172 28.8C71.8172 24.5667 71.2005 21.4333 69.9672 19.4C68.7672 17.3667 67.2172 16.35 65.3172 16.35ZM126.814 1.45L97.5637 44.75L96.6137 44.1L125.864 0.799997L126.814 1.45ZM103.064 3.95C105.497 3.95 107.447 4.68333 108.914 6.15C110.414 7.58333 111.164 9.56667 111.164 12.1C111.164 13.7667 110.814 15.2333 110.114 16.5C109.414 17.7667 108.447 18.75 107.214 19.45C105.98 20.15 104.597 20.5 103.064 20.5C100.63 20.5 98.6637 19.7833 97.1637 18.35C95.6637 16.8833 94.9137 14.8833 94.9137 12.35C94.9137 10.7167 95.2637 9.26667 95.9637 8C96.6637 6.7 97.6303 5.7 98.8637 5C100.13 4.3 101.53 3.95 103.064 3.95ZM102.964 4.85C100.797 4.85 99.7137 7.33333 99.7137 12.3C99.7137 14.7 100.014 16.5167 100.614 17.75C101.214 18.9833 102.064 19.6 103.164 19.6C105.297 19.6 106.364 17.1333 106.364 12.2C106.364 9.76667 106.064 7.93333 105.464 6.7C104.897 5.46667 104.064 4.85 102.964 4.85ZM119.864 26.15C122.297 26.15 124.247 26.8833 125.714 28.35C127.214 29.7833 127.964 31.7667 127.964 34.3C127.964 35.9667 127.614 37.4333 126.914 38.7C126.214 39.9667 125.247 40.95 124.014 41.65C122.78 42.35 121.397 42.7 119.864 42.7C117.43 42.7 115.464 41.9833 113.964 40.55C112.464 39.0833 111.714 37.0833 111.714 34.55C111.714 32.9167 112.064 31.4667 112.764 30.2C113.464 28.9 114.43 27.9 115.664 27.2C116.93 26.5 118.33 26.15 119.864 26.15ZM119.764 27.05C117.597 27.05 116.514 29.5333 116.514 34.5C116.514 36.9 116.814 38.7167 117.414 39.95C118.014 41.1833 118.864 41.8 119.964 41.8C122.097 41.8 123.164 39.3333 123.164 34.4C123.164 31.9667 122.864 30.1333 122.264 28.9C121.697 27.6667 120.864 27.05 119.764 27.05Z" fill="#676CDB"/>
</svg>
