<svg width="129" height="76" viewBox="0 0 129 76" fill="none" xmlns="http://www.w3.org/2000/svg">
<path d="M38.1 7.9L38.5 10.5L7.3 50.5L8.7 47.1H40.5C43.2333 47.1 44.9667 46.7667 45.7 46.1C46.4333 45.4333 46.9333 44.2667 47.2 42.6H49.3C49.3 46.6 49.3333 49.7333 49.4 52C49.4667 54.2 49.5667 56.1667 49.7 57.9C49.2333 57.7667 48.3667 57.7 47.1 57.7C45.8333 57.6333 44.3333 57.5667 42.6 57.5C40.8667 57.4333 39.1 57.4 37.3 57.4C35.5667 57.4 33.9333 57.4 32.4 57.4H0.8V55.3L38.1 7.9ZM39.7 7.9V75.1H28.1V22L38.1 7.9H39.7ZM105.598 0.399999V24H128.798V27H105.598V50.5H101.998V27H78.6977V24H101.998V0.399999H105.598Z" fill="#676CDB"/>
</svg>
