<svg width="68" height="35" viewBox="0 0 68 35" fill="none" xmlns="http://www.w3.org/2000/svg">
<path d="M21.7 2.25C21.3 3.18333 20.4833 4.78333 19.25 7.05C17.9167 9.45 16.8333 11.55 16 13.35C15.1667 15.15 14.4333 17.2 13.8 19.5C13.2 21.8 12.9 24.2 12.9 26.7L13 28.4C13.1 29.2667 13.15 30.05 13.15 30.75C13.15 31.7833 12.8333 32.65 12.2 33.35C11.5667 34.05 10.6667 34.4 9.5 34.4C8.3 34.4 7.38333 34 6.75 33.2C6.15 32.4 5.85 31.3333 5.85 30C5.85 27.9333 6.3 25.8333 7.2 23.7C8.1 21.5333 9.16667 19.5333 10.4 17.7C11.6667 15.8333 13.3 13.5833 15.3 10.95C15.7 10.3833 16.1333 9.8 16.6 9.2C17.0667 8.6 17.55 7.95 18.05 7.25H4.75C3.85 7.25 3.16667 7.31667 2.7 7.45C2.26667 7.58333 1.96667 7.8 1.8 8.1C1.63333 8.4 1.5 8.86667 1.4 9.5H0.35C0.35 5.5 0.283333 2.65 0.15 0.949999C0.883333 1.11667 3.36667 1.2 7.6 1.2H21.7V2.25ZM43.9672 25.45C43.5672 25.35 41.9005 25.2667 38.9672 25.2V34.05H33.1672V25.2H19.5172V24.15L38.1672 0.449999H38.9672V20.05H39.3672C40.2672 20.05 40.9339 19.9833 41.3672 19.85C41.8339 19.7167 42.1505 19.5 42.3172 19.2C42.4839 18.9 42.6172 18.4333 42.7172 17.8H43.7672C43.7672 21.3333 43.8339 23.8833 43.9672 25.45ZM33.1672 20.05V8.4L24.1172 20.05H33.1672ZM57.0031 0.449999C59.5031 0.449999 61.5531 0.966666 63.1531 2C64.7531 3.03333 65.5531 4.43333 65.5531 6.2C65.5531 8.1 64.6365 9.8 62.8031 11.3C60.9698 12.8 58.5031 13.85 55.4031 14.45C58.9031 14.3167 61.7698 14.9333 64.0031 16.3C66.2365 17.6333 67.3531 19.55 67.3531 22.05C67.3531 24.4833 66.3031 26.65 64.2031 28.55C62.1031 30.4833 59.4031 31.9667 56.1031 33C52.8365 34.0333 49.5198 34.55 46.1531 34.55V33.55C48.3531 33.4833 50.5031 32.9833 52.6031 32.05C54.7365 31.15 56.4865 29.85 57.8531 28.15C59.2198 26.45 59.9031 24.4333 59.9031 22.1C59.9031 20.1333 59.4198 18.5167 58.4531 17.25C57.5198 15.9833 56.2531 15.2833 54.6531 15.15C54.1865 15.3833 53.7198 15.5833 53.2531 15.75C52.8198 15.8833 52.4365 15.95 52.1031 15.95C51.4698 15.95 51.1531 15.7167 51.1531 15.25C51.1531 14.8833 51.3031 14.6167 51.6031 14.45C51.9031 14.25 52.2865 14.15 52.7531 14.15C52.9531 14.15 53.2198 14.1833 53.5531 14.25C53.9198 14.2833 54.2365 14.3167 54.5031 14.35C57.0698 12.55 58.3531 10.3167 58.3531 7.65C58.3531 6.15 57.9698 5.05 57.2031 4.35C56.4365 3.61667 55.3365 3.25 53.9031 3.25C52.5698 3.25 51.3365 3.58333 50.2031 4.25C49.1031 4.91667 48.1698 5.88333 47.4031 7.15L46.5031 6.7C47.5365 4.8 48.8698 3.28333 50.5031 2.15C52.1698 1.01667 54.3365 0.449999 57.0031 0.449999Z" fill="#676CDB"/>
</svg>
