<svg width="24" height="23" viewBox="0 0 24 23" fill="none" xmlns="http://www.w3.org/2000/svg">
<path fill-rule="evenodd" clip-rule="evenodd" d="M23.33 14.0154C24.896 8.40518 21.188 2.61062 15.0965 1.0439C8.2175 -0.727303 -1.546 3.87206 0.625997 9.77174C1.346 11.7229 2.732 12.1794 5.3465 12.2154L5.51 12.2183C6.8915 12.2341 7.28 12.3205 7.397 12.502C7.5875 12.8015 7.5905 13.2781 7.376 14.59C7.274 15.2092 7.241 15.4252 7.202 15.7636C6.9635 17.8242 7.3265 19.4313 8.732 20.8857C13.124 25.426 21.5615 20.3485 23.33 14.0154ZM3.455 8.80982C2.3615 5.84342 9.359 2.54726 14.3195 3.8231C18.845 4.98806 21.5585 9.22886 20.432 13.2681C19.175 17.7724 13.259 21.3321 10.931 18.9244C10.211 18.1813 10.0325 17.3865 10.184 16.0804C10.2155 15.801 10.2455 15.6081 10.34 15.0349C10.6685 13.0233 10.664 12.1045 9.953 10.9943C9.062 9.60182 8.003 9.3671 5.5475 9.33686L5.3885 9.33398C3.9425 9.31526 3.599 9.2015 3.4535 8.80982H3.455Z" fill="#222A36"/>
</svg>
